<mxfile host="Electron" agent="Mozilla/5.0 (Macintosh; Intel Mac OS X 10_15_7) AppleWebKit/537.36 (KHTML, like Gecko) draw.io/24.7.8 Chrome/128.0.6613.36 Electron/32.0.1 Safari/537.36" version="24.7.8">
  <diagram name="Page-1" id="Ee6CVvwD5WAfKyXV0YYB">
    <mxGraphModel dx="1114" dy="793" grid="1" gridSize="10" guides="1" tooltips="1" connect="1" arrows="1" fold="1" page="1" pageScale="1" pageWidth="1100" pageHeight="1700" math="0" shadow="0">
      <root>
        <mxCell id="0" />
        <mxCell id="1" parent="0" />
        <mxCell id="czyye2L7NU0_ncOeAjOM-36" value="" style="group;fontSize=14;" vertex="1" connectable="0" parent="1">
          <mxGeometry x="180" y="490" width="190" height="30" as="geometry" />
        </mxCell>
        <mxCell id="czyye2L7NU0_ncOeAjOM-32" value="1" style="text;html=1;align=center;verticalAlign=middle;whiteSpace=wrap;rounded=0;" vertex="1" parent="czyye2L7NU0_ncOeAjOM-36">
          <mxGeometry width="40" height="30" as="geometry" />
        </mxCell>
        <mxCell id="czyye2L7NU0_ncOeAjOM-33" value="40" style="text;html=1;align=center;verticalAlign=middle;whiteSpace=wrap;rounded=0;fontSize=14;" vertex="1" parent="czyye2L7NU0_ncOeAjOM-36">
          <mxGeometry x="40" width="40" height="30" as="geometry" />
        </mxCell>
        <mxCell id="czyye2L7NU0_ncOeAjOM-34" value="52" style="text;html=1;align=center;verticalAlign=middle;whiteSpace=wrap;rounded=0;fontSize=14;" vertex="1" parent="czyye2L7NU0_ncOeAjOM-36">
          <mxGeometry x="90" width="40" height="30" as="geometry" />
        </mxCell>
        <mxCell id="czyye2L7NU0_ncOeAjOM-35" value="60" style="text;html=1;align=center;verticalAlign=middle;whiteSpace=wrap;rounded=0;fontSize=14;" vertex="1" parent="czyye2L7NU0_ncOeAjOM-36">
          <mxGeometry x="150" width="40" height="30" as="geometry" />
        </mxCell>
        <mxCell id="czyye2L7NU0_ncOeAjOM-37" value="" style="group;fontSize=16;" vertex="1" connectable="0" parent="1">
          <mxGeometry x="180" y="120" width="500" height="280" as="geometry" />
        </mxCell>
        <mxCell id="czyye2L7NU0_ncOeAjOM-2" value="" style="shape=table;startSize=0;container=1;collapsible=0;childLayout=tableLayout;" vertex="1" parent="czyye2L7NU0_ncOeAjOM-37">
          <mxGeometry x="380" width="120" height="280" as="geometry" />
        </mxCell>
        <mxCell id="czyye2L7NU0_ncOeAjOM-3" value="" style="shape=tableRow;horizontal=0;startSize=0;swimlaneHead=0;swimlaneBody=0;strokeColor=inherit;top=0;left=0;bottom=0;right=0;collapsible=0;dropTarget=0;fillColor=none;points=[[0,0.5],[1,0.5]];portConstraint=eastwest;" vertex="1" parent="czyye2L7NU0_ncOeAjOM-2">
          <mxGeometry width="120" height="40" as="geometry" />
        </mxCell>
        <mxCell id="czyye2L7NU0_ncOeAjOM-4" value="I" style="shape=partialRectangle;html=1;whiteSpace=wrap;connectable=0;strokeColor=inherit;overflow=hidden;fillColor=none;top=0;left=0;bottom=0;right=0;pointerEvents=1;" vertex="1" parent="czyye2L7NU0_ncOeAjOM-3">
          <mxGeometry width="60" height="40" as="geometry">
            <mxRectangle width="60" height="40" as="alternateBounds" />
          </mxGeometry>
        </mxCell>
        <mxCell id="czyye2L7NU0_ncOeAjOM-5" value="1" style="shape=partialRectangle;html=1;whiteSpace=wrap;connectable=0;strokeColor=inherit;overflow=hidden;fillColor=none;top=0;left=0;bottom=0;right=0;pointerEvents=1;" vertex="1" parent="czyye2L7NU0_ncOeAjOM-3">
          <mxGeometry x="60" width="60" height="40" as="geometry">
            <mxRectangle width="60" height="40" as="alternateBounds" />
          </mxGeometry>
        </mxCell>
        <mxCell id="czyye2L7NU0_ncOeAjOM-6" value="" style="shape=tableRow;horizontal=0;startSize=0;swimlaneHead=0;swimlaneBody=0;strokeColor=inherit;top=0;left=0;bottom=0;right=0;collapsible=0;dropTarget=0;fillColor=none;points=[[0,0.5],[1,0.5]];portConstraint=eastwest;" vertex="1" parent="czyye2L7NU0_ncOeAjOM-2">
          <mxGeometry y="40" width="120" height="40" as="geometry" />
        </mxCell>
        <mxCell id="czyye2L7NU0_ncOeAjOM-7" value="..." style="shape=partialRectangle;html=1;whiteSpace=wrap;connectable=0;strokeColor=inherit;overflow=hidden;fillColor=none;top=0;left=0;bottom=0;right=0;pointerEvents=1;" vertex="1" parent="czyye2L7NU0_ncOeAjOM-6">
          <mxGeometry width="60" height="40" as="geometry">
            <mxRectangle width="60" height="40" as="alternateBounds" />
          </mxGeometry>
        </mxCell>
        <mxCell id="czyye2L7NU0_ncOeAjOM-8" value="" style="shape=partialRectangle;html=1;whiteSpace=wrap;connectable=0;strokeColor=inherit;overflow=hidden;fillColor=none;top=0;left=0;bottom=0;right=0;pointerEvents=1;" vertex="1" parent="czyye2L7NU0_ncOeAjOM-6">
          <mxGeometry x="60" width="60" height="40" as="geometry">
            <mxRectangle width="60" height="40" as="alternateBounds" />
          </mxGeometry>
        </mxCell>
        <mxCell id="czyye2L7NU0_ncOeAjOM-9" value="" style="shape=tableRow;horizontal=0;startSize=0;swimlaneHead=0;swimlaneBody=0;strokeColor=inherit;top=0;left=0;bottom=0;right=0;collapsible=0;dropTarget=0;fillColor=none;points=[[0,0.5],[1,0.5]];portConstraint=eastwest;" vertex="1" parent="czyye2L7NU0_ncOeAjOM-2">
          <mxGeometry y="80" width="120" height="40" as="geometry" />
        </mxCell>
        <mxCell id="czyye2L7NU0_ncOeAjOM-10" value="Love" style="shape=partialRectangle;html=1;whiteSpace=wrap;connectable=0;strokeColor=inherit;overflow=hidden;fillColor=none;top=0;left=0;bottom=0;right=0;pointerEvents=1;" vertex="1" parent="czyye2L7NU0_ncOeAjOM-9">
          <mxGeometry width="60" height="40" as="geometry">
            <mxRectangle width="60" height="40" as="alternateBounds" />
          </mxGeometry>
        </mxCell>
        <mxCell id="czyye2L7NU0_ncOeAjOM-11" value="40" style="shape=partialRectangle;html=1;whiteSpace=wrap;connectable=0;strokeColor=inherit;overflow=hidden;fillColor=none;top=0;left=0;bottom=0;right=0;pointerEvents=1;" vertex="1" parent="czyye2L7NU0_ncOeAjOM-9">
          <mxGeometry x="60" width="60" height="40" as="geometry">
            <mxRectangle width="60" height="40" as="alternateBounds" />
          </mxGeometry>
        </mxCell>
        <mxCell id="czyye2L7NU0_ncOeAjOM-12" value="" style="shape=tableRow;horizontal=0;startSize=0;swimlaneHead=0;swimlaneBody=0;strokeColor=inherit;top=0;left=0;bottom=0;right=0;collapsible=0;dropTarget=0;fillColor=none;points=[[0,0.5],[1,0.5]];portConstraint=eastwest;" vertex="1" parent="czyye2L7NU0_ncOeAjOM-2">
          <mxGeometry y="120" width="120" height="40" as="geometry" />
        </mxCell>
        <mxCell id="czyye2L7NU0_ncOeAjOM-13" value="..." style="shape=partialRectangle;html=1;whiteSpace=wrap;connectable=0;strokeColor=inherit;overflow=hidden;fillColor=none;top=0;left=0;bottom=0;right=0;pointerEvents=1;" vertex="1" parent="czyye2L7NU0_ncOeAjOM-12">
          <mxGeometry width="60" height="40" as="geometry">
            <mxRectangle width="60" height="40" as="alternateBounds" />
          </mxGeometry>
        </mxCell>
        <mxCell id="czyye2L7NU0_ncOeAjOM-14" value="" style="shape=partialRectangle;html=1;whiteSpace=wrap;connectable=0;strokeColor=inherit;overflow=hidden;fillColor=none;top=0;left=0;bottom=0;right=0;pointerEvents=1;" vertex="1" parent="czyye2L7NU0_ncOeAjOM-12">
          <mxGeometry x="60" width="60" height="40" as="geometry">
            <mxRectangle width="60" height="40" as="alternateBounds" />
          </mxGeometry>
        </mxCell>
        <mxCell id="czyye2L7NU0_ncOeAjOM-15" value="" style="shape=tableRow;horizontal=0;startSize=0;swimlaneHead=0;swimlaneBody=0;strokeColor=inherit;top=0;left=0;bottom=0;right=0;collapsible=0;dropTarget=0;fillColor=none;points=[[0,0.5],[1,0.5]];portConstraint=eastwest;" vertex="1" parent="czyye2L7NU0_ncOeAjOM-2">
          <mxGeometry y="160" width="120" height="40" as="geometry" />
        </mxCell>
        <mxCell id="czyye2L7NU0_ncOeAjOM-16" value="Machine" style="shape=partialRectangle;html=1;whiteSpace=wrap;connectable=0;strokeColor=inherit;overflow=hidden;fillColor=none;top=0;left=0;bottom=0;right=0;pointerEvents=1;" vertex="1" parent="czyye2L7NU0_ncOeAjOM-15">
          <mxGeometry width="60" height="40" as="geometry">
            <mxRectangle width="60" height="40" as="alternateBounds" />
          </mxGeometry>
        </mxCell>
        <mxCell id="czyye2L7NU0_ncOeAjOM-17" value="52" style="shape=partialRectangle;html=1;whiteSpace=wrap;connectable=0;strokeColor=inherit;overflow=hidden;fillColor=none;top=0;left=0;bottom=0;right=0;pointerEvents=1;" vertex="1" parent="czyye2L7NU0_ncOeAjOM-15">
          <mxGeometry x="60" width="60" height="40" as="geometry">
            <mxRectangle width="60" height="40" as="alternateBounds" />
          </mxGeometry>
        </mxCell>
        <mxCell id="czyye2L7NU0_ncOeAjOM-18" value="" style="shape=tableRow;horizontal=0;startSize=0;swimlaneHead=0;swimlaneBody=0;strokeColor=inherit;top=0;left=0;bottom=0;right=0;collapsible=0;dropTarget=0;fillColor=none;points=[[0,0.5],[1,0.5]];portConstraint=eastwest;" vertex="1" parent="czyye2L7NU0_ncOeAjOM-2">
          <mxGeometry y="200" width="120" height="40" as="geometry" />
        </mxCell>
        <mxCell id="czyye2L7NU0_ncOeAjOM-19" value="...." style="shape=partialRectangle;html=1;whiteSpace=wrap;connectable=0;strokeColor=inherit;overflow=hidden;fillColor=none;top=0;left=0;bottom=0;right=0;pointerEvents=1;" vertex="1" parent="czyye2L7NU0_ncOeAjOM-18">
          <mxGeometry width="60" height="40" as="geometry">
            <mxRectangle width="60" height="40" as="alternateBounds" />
          </mxGeometry>
        </mxCell>
        <mxCell id="czyye2L7NU0_ncOeAjOM-20" value="" style="shape=partialRectangle;html=1;whiteSpace=wrap;connectable=0;strokeColor=inherit;overflow=hidden;fillColor=none;top=0;left=0;bottom=0;right=0;pointerEvents=1;" vertex="1" parent="czyye2L7NU0_ncOeAjOM-18">
          <mxGeometry x="60" width="60" height="40" as="geometry">
            <mxRectangle width="60" height="40" as="alternateBounds" />
          </mxGeometry>
        </mxCell>
        <mxCell id="czyye2L7NU0_ncOeAjOM-21" value="" style="shape=tableRow;horizontal=0;startSize=0;swimlaneHead=0;swimlaneBody=0;strokeColor=inherit;top=0;left=0;bottom=0;right=0;collapsible=0;dropTarget=0;fillColor=none;points=[[0,0.5],[1,0.5]];portConstraint=eastwest;" vertex="1" parent="czyye2L7NU0_ncOeAjOM-2">
          <mxGeometry y="240" width="120" height="40" as="geometry" />
        </mxCell>
        <mxCell id="czyye2L7NU0_ncOeAjOM-22" value="Learning" style="shape=partialRectangle;html=1;whiteSpace=wrap;connectable=0;strokeColor=inherit;overflow=hidden;fillColor=none;top=0;left=0;bottom=0;right=0;pointerEvents=1;" vertex="1" parent="czyye2L7NU0_ncOeAjOM-21">
          <mxGeometry width="60" height="40" as="geometry">
            <mxRectangle width="60" height="40" as="alternateBounds" />
          </mxGeometry>
        </mxCell>
        <mxCell id="czyye2L7NU0_ncOeAjOM-23" value="60" style="shape=partialRectangle;html=1;whiteSpace=wrap;connectable=0;strokeColor=inherit;overflow=hidden;fillColor=none;top=0;left=0;bottom=0;right=0;pointerEvents=1;" vertex="1" parent="czyye2L7NU0_ncOeAjOM-21">
          <mxGeometry x="60" width="60" height="40" as="geometry">
            <mxRectangle width="60" height="40" as="alternateBounds" />
          </mxGeometry>
        </mxCell>
        <mxCell id="czyye2L7NU0_ncOeAjOM-28" style="edgeStyle=orthogonalEdgeStyle;rounded=0;orthogonalLoop=1;jettySize=auto;html=1;entryX=0;entryY=0.5;entryDx=0;entryDy=0;" edge="1" parent="czyye2L7NU0_ncOeAjOM-37" source="czyye2L7NU0_ncOeAjOM-24" target="czyye2L7NU0_ncOeAjOM-3">
          <mxGeometry relative="1" as="geometry" />
        </mxCell>
        <mxCell id="czyye2L7NU0_ncOeAjOM-24" value="I" style="text;html=1;align=center;verticalAlign=middle;whiteSpace=wrap;rounded=0;fontSize=14;" vertex="1" parent="czyye2L7NU0_ncOeAjOM-37">
          <mxGeometry y="50" width="40" height="30" as="geometry" />
        </mxCell>
        <mxCell id="czyye2L7NU0_ncOeAjOM-29" style="edgeStyle=orthogonalEdgeStyle;rounded=0;orthogonalLoop=1;jettySize=auto;html=1;exitX=0.5;exitY=1;exitDx=0;exitDy=0;entryX=0;entryY=0.5;entryDx=0;entryDy=0;" edge="1" parent="czyye2L7NU0_ncOeAjOM-37" source="czyye2L7NU0_ncOeAjOM-25" target="czyye2L7NU0_ncOeAjOM-9">
          <mxGeometry relative="1" as="geometry" />
        </mxCell>
        <mxCell id="czyye2L7NU0_ncOeAjOM-25" value="love" style="text;html=1;align=center;verticalAlign=middle;whiteSpace=wrap;rounded=0;fontSize=14;" vertex="1" parent="czyye2L7NU0_ncOeAjOM-37">
          <mxGeometry x="40" y="50" width="40" height="30" as="geometry" />
        </mxCell>
        <mxCell id="czyye2L7NU0_ncOeAjOM-30" style="edgeStyle=orthogonalEdgeStyle;rounded=0;orthogonalLoop=1;jettySize=auto;html=1;exitX=0.5;exitY=1;exitDx=0;exitDy=0;" edge="1" parent="czyye2L7NU0_ncOeAjOM-37" source="czyye2L7NU0_ncOeAjOM-26" target="czyye2L7NU0_ncOeAjOM-15">
          <mxGeometry relative="1" as="geometry" />
        </mxCell>
        <mxCell id="czyye2L7NU0_ncOeAjOM-26" value="&lt;font style=&quot;font-size: 14px;&quot;&gt;Machine&lt;/font&gt;" style="text;html=1;align=center;verticalAlign=middle;whiteSpace=wrap;rounded=0;" vertex="1" parent="czyye2L7NU0_ncOeAjOM-37">
          <mxGeometry x="90" y="50" width="40" height="30" as="geometry" />
        </mxCell>
        <mxCell id="czyye2L7NU0_ncOeAjOM-31" style="edgeStyle=orthogonalEdgeStyle;rounded=0;orthogonalLoop=1;jettySize=auto;html=1;entryX=0;entryY=0.5;entryDx=0;entryDy=0;" edge="1" parent="czyye2L7NU0_ncOeAjOM-37" source="czyye2L7NU0_ncOeAjOM-27" target="czyye2L7NU0_ncOeAjOM-21">
          <mxGeometry relative="1" as="geometry" />
        </mxCell>
        <mxCell id="czyye2L7NU0_ncOeAjOM-27" value="Leraning" style="text;html=1;align=center;verticalAlign=middle;whiteSpace=wrap;rounded=0;fontSize=14;" vertex="1" parent="czyye2L7NU0_ncOeAjOM-37">
          <mxGeometry x="150" y="50" width="40" height="30" as="geometry" />
        </mxCell>
        <mxCell id="czyye2L7NU0_ncOeAjOM-38" value="" style="shape=flexArrow;endArrow=classic;html=1;rounded=0;" edge="1" parent="1">
          <mxGeometry width="50" height="50" relative="1" as="geometry">
            <mxPoint x="280" y="320" as="sourcePoint" />
            <mxPoint x="280" y="480" as="targetPoint" />
          </mxGeometry>
        </mxCell>
        <mxCell id="czyye2L7NU0_ncOeAjOM-39" value="Vocab Table" style="text;html=1;align=center;verticalAlign=middle;whiteSpace=wrap;rounded=0;fontSize=16;" vertex="1" parent="1">
          <mxGeometry x="570" y="80" width="90" height="30" as="geometry" />
        </mxCell>
      </root>
    </mxGraphModel>
  </diagram>
</mxfile>
